<?xml version="1.0" encoding="utf-8"?>
<svg viewBox="0 25.427 485.28 191.259" xmlns="http://www.w3.org/2000/svg">
  <g data-paper-data="{&quot;description&quot;:&quot;Logo for weathes\n================\n\nThis logo was generated by MarkMaker at http://emblemmatic.org/markmaker/ and may be composed of elements designed by others.\n\nThe font is Yanone Kaffeesatz Bold designed by Multiple Designers and released under the OFL license via Google Fonts: https://www.google.com/fonts/specimen/Yanone%20Kaffeesatz. The font includes this copyright statement: Copyright (c) 2004-2010, Jan Gerner (post@yanone.de). Copyright (c) Huerta Tipografica (info@huertatipografica.com.ar)\n\nMarkMaker uses semantic data from the Princeton University WordNet database http://wordnet.princeton.edu and font descriptions from Google Fonts https://www.google.com/fonts.&quot;}" fill="#28c8c8" fill-rule="nonzero" stroke="none" stroke-width="1" stroke-linecap="butt" stroke-linejoin="miter" stroke-miterlimit="10" stroke-dasharray="" stroke-dashoffset="0" font-family="none" font-weight="none" font-size="none" text-anchor="none" style="mix-blend-mode: normal" transform="matrix(1, 0, 0, 1, -7.842081, -131.056671)">
    <g data-paper-data="{&quot;elementType&quot;:&quot;logo&quot;}">
      <g data-paper-data="{&quot;elementType&quot;:&quot;text&quot;}">
        <g data-paper-data="{&quot;baseline&quot;:73.5,&quot;elementType&quot;:&quot;row&quot;}">
          <g data-paper-data="{&quot;baselineProportion&quot;:0.9865771812080537,&quot;fontSize&quot;:100,&quot;baseline&quot;:73.5,&quot;elementType&quot;:&quot;word&quot;}">
            <path d="M132.80648,305.89823c-5.44847,0.61681 -10.43434,0.92521 -14.95759,0.92521c-4.72886,0 -7.7615,-3.23824 -9.09792,-9.71473l-3.54665,-17.11642c-1.95323,-9.86893 -3.64945,-23.1817 -5.08867,-39.93832c-1.95323,19.01825 -3.54665,32.33102 -4.78026,39.93832l-4.31766,25.90594c-5.03727,0.51401 -10.48574,0.77101 -16.34541,0.77101c-4.31766,0 -7.09329,-3.18684 -8.32691,-9.56052c-2.15883,-10.38293 -5.08867,-26.88255 -8.78951,-49.49884c-3.70085,-22.61629 -6.16808,-37.67669 -7.4017,-45.18119c-0.1028,-0.51401 -0.1542,-1.18222 -0.1542,-2.00463c0,-0.92521 0.2827,-1.56772 0.84811,-1.92753c0.56541,-0.3598 1.61912,-0.53971 3.16114,-0.53971h14.34079l7.7101,50.57826c2.15883,13.87818 3.59805,27.19095 4.31766,39.93832h1.23362c0.3084,-12.54176 1.59342,-25.85454 3.85505,-39.93832l6.63069,-41.32614c0.2056,-1.74762 0.56541,-2.95554 1.07941,-3.62375c0.51401,-0.66821 1.54202,-1.00231 3.08404,-1.00231h0.92521h11.10254l8.0185,45.9522c1.74762,10.07453 3.23824,23.3873 4.47186,39.93832h1.23362c0.51401,-13.15857 1.74762,-26.47134 3.70085,-39.93832l6.63069,-45.9522c0.2056,-1.74762 0.56541,-2.95554 1.07941,-3.62375c0.51401,-0.66821 1.49062,-1.00231 2.92984,-1.00231h14.95759z" data-paper-data="{&quot;elementType&quot;:&quot;letter&quot;,&quot;baseline&quot;:70,&quot;baselineProportion&quot;:0.991501416430595,&quot;fontSize&quot;:100}"/>
            <path d="M175.67463,290.78643c4.93446,0 10.38293,-1.43922 16.34541,-4.31766c0.92521,3.08404 1.38782,6.88769 1.38782,11.41095c0,2.98124 -2.08173,5.31997 -6.24518,7.01619c-4.16345,1.69622 -9.38062,2.54433 -15.6515,2.54433c-7.7101,0 -13.62118,-2.64713 -17.73323,-7.9414c-4.11205,-5.29427 -6.16808,-14.77769 -6.16808,-28.45027c0,-11.71935 1.20792,-20.81727 3.62375,-27.29375c2.41583,-6.47648 5.57697,-10.84554 9.48342,-13.10717c3.90645,-2.26163 8.58391,-3.39244 14.03238,-3.39244c13.15857,0 19.73786,8.37831 19.73786,25.13493c0,8.94372 -0.71961,16.24261 -2.15883,21.89668c-5.85968,1.23362 -14.80339,1.95323 -26.83115,2.15883c0.3084,5.24287 1.18222,8.94372 2.62143,11.10254c1.43922,2.15883 3.95785,3.23824 7.5559,3.23824M172.59059,242.0586c-2.36443,0 -4.08635,1.67052 -5.16577,5.01157c-1.07941,3.34104 -1.72192,8.66101 -1.92753,15.95991c5.75687,0 9.61192,-0.46261 11.56515,-1.38782c0.51401,-1.54202 0.77101,-4.21485 0.77101,-8.0185c0,-4.72886 -0.3598,-7.8386 -1.07941,-9.32922c-0.71961,-1.49062 -2.10743,-2.23593 -4.16345,-2.23593z" data-paper-data="{&quot;elementType&quot;:&quot;letter&quot;,&quot;baseline&quot;:51,&quot;baselineProportion&quot;:0.9807692307692307,&quot;fontSize&quot;:100}"/>
            <path d="M245.68234,253.31534c0,25.18633 -0.257,41.58314 -0.77101,49.19044c-5.55127,3.28964 -12.95297,4.93446 -22.20509,4.93446c-4.42046,0 -8.19841,-0.56541 -11.33385,-1.69622c-3.13544,-1.13081 -5.67977,-3.46955 -7.633,-7.01619c-1.95323,-3.54665 -2.92984,-8.66101 -2.92984,-15.3431c0,-9.66333 1.64482,-16.31971 4.93446,-19.96916c3.28964,-3.64945 7.6073,-5.47417 12.95297,-5.47417c4.21485,0 7.5045,0.77101 9.86893,2.31303v-10.63994c0,-2.05603 -0.48831,-3.54665 -1.46492,-4.47186c-0.97661,-0.92521 -2.64713,-1.38782 -5.01157,-1.38782c-6.47648,0 -12.69597,1.07941 -18.65844,3.23824c-1.54202,-2.98124 -2.31303,-6.27088 -2.31303,-9.86893c0,-2.46723 0.71961,-4.26626 2.15883,-5.39707c1.33642,-1.02801 4.11205,-2.03033 8.32691,-3.00694c4.21485,-0.97661 9.09792,-1.46492 14.64919,-1.46492c7.09329,0 12.10486,1.41352 15.0347,4.24056c2.92984,2.82704 4.39476,7.6844 4.39476,14.57209v7.24749M228.56592,271.81958c-1.02801,-0.92521 -2.36443,-1.38782 -4.00925,-1.38782c-1.95323,0 -3.39244,0.89951 -4.31766,2.69854c-0.92521,1.79902 -1.38782,5.06297 -1.38782,9.79183c0,3.80365 0.3598,6.50218 1.07941,8.09561c0.71961,1.59342 2.05603,2.39013 4.00925,2.39013c1.95323,0 3.39244,-0.51401 4.31766,-1.54202c0.2056,-2.36443 0.3084,-9.04652 0.3084,-20.04626z" data-paper-data="{&quot;elementType&quot;:&quot;letter&quot;,&quot;baseline&quot;:51,&quot;baselineProportion&quot;:0.9807692307692307,&quot;fontSize&quot;:100}"/>
            <path d="M249.8458,243.29221c0,-4.72886 0.0514,-8.0185 0.1542,-9.86893c0.1028,-1.85042 0.38551,-3.08404 0.84811,-3.70085c0.46261,-0.61681 1.31072,-0.92521 2.54433,-0.92521h5.85968v-22.35929c0,-1.85042 0.46261,-3.13544 1.38782,-3.85505c0.92521,-0.71961 2.44153,-1.15652 4.54896,-1.31072c2.10743,-0.1542 5.83398,-0.2313 11.17965,-0.2313v27.75636h12.64456c0,4.83166 -0.0514,8.14701 -0.1542,9.94603c-0.1028,1.79902 -0.38551,3.00694 -0.84811,3.62375c-0.46261,0.61681 -1.25932,0.92521 -2.39013,0.92521h-9.25212v42.09715c0,2.46723 0.2056,4.34336 0.61681,5.62837c0.41121,1.28502 1.43922,1.92753 3.08404,1.92753c2.57003,0 5.24287,-0.66821 8.0185,-2.00463c0.71961,3.39244 1.07941,6.11668 1.07941,8.17271c0,5.55127 -4.67746,8.32691 -14.03238,8.32691c-4.42046,0 -7.7615,-0.82241 -10.02313,-2.46723c-2.26163,-1.64482 -3.80365,-4.00925 -4.62606,-7.09329c-0.82241,-3.08404 -1.23362,-7.14469 -1.23362,-12.18196v-42.40555z" data-paper-data="{&quot;elementType&quot;:&quot;letter&quot;,&quot;baseline&quot;:68,&quot;baselineProportion&quot;:0.9855072463768116,&quot;fontSize&quot;:100}"/>
            <path d="M297.34002,200.11565c0,-2.57003 0.43691,-4.34336 1.31072,-5.31997c0.87381,-0.97661 2.36443,-1.59342 4.47186,-1.85042c2.10743,-0.257 5.88538,-0.38551 11.33385,-0.38551v40.09252c1.74762,-1.74762 3.98355,-3.08404 6.70779,-4.00925c2.72424,-0.92521 5.42277,-1.38782 8.09561,-1.38782c5.65407,0 9.43202,1.54202 11.33385,4.62606c1.90182,3.08404 2.85274,8.17271 2.85274,15.266v55.66692c0,1.13081 -0.3341,1.87612 -1.00231,2.23593c-0.66821,0.3598 -2.44153,0.59111 -5.31997,0.69391c-2.87844,0.1028 -6.68209,0.1542 -11.41095,0.1542v-53.35389c0,-3.08404 -0.3084,-5.44847 -0.92521,-7.09329c-0.61681,-1.64482 -1.95323,-2.46723 -4.00925,-2.46723c-2.15883,0 -4.26626,0.66821 -6.32228,2.00463v57.82575c0,1.13081 -0.257,1.87612 -0.77101,2.23593c-0.51401,0.3598 -2.15883,0.59111 -4.93446,0.69391c-2.77564,0.1028 -6.57929,0.1542 -11.41095,0.1542z" data-paper-data="{&quot;elementType&quot;:&quot;letter&quot;,&quot;baseline&quot;:73.5,&quot;baselineProportion&quot;:1,&quot;fontSize&quot;:100}"/>
            <path d="M380.7633,290.78643c4.93446,0 10.38293,-1.43922 16.34541,-4.31766c0.92521,3.08404 1.38782,6.88769 1.38782,11.41095c0,2.98124 -2.08173,5.31997 -6.24518,7.01619c-4.16345,1.69622 -9.38062,2.54433 -15.6515,2.54433c-7.7101,0 -13.62118,-2.64713 -17.73323,-7.9414c-4.11205,-5.29427 -6.16808,-14.77769 -6.16808,-28.45027c0,-11.71935 1.20792,-20.81727 3.62375,-27.29375c2.41583,-6.47648 5.57697,-10.84554 9.48342,-13.10717c3.90645,-2.26163 8.58391,-3.39244 14.03238,-3.39244c13.15857,0 19.73786,8.37831 19.73786,25.13493c0,8.94372 -0.71961,16.24261 -2.15883,21.89668c-5.85968,1.23362 -14.80339,1.95323 -26.83115,2.15883c0.3084,5.24287 1.18222,8.94372 2.62143,11.10254c1.43922,2.15883 3.95785,3.23824 7.5559,3.23824M377.67926,242.0586c-2.36443,0 -4.08635,1.67052 -5.16577,5.01157c-1.07941,3.34104 -1.72192,8.66101 -1.92753,15.95991c5.75687,0 9.61192,-0.46261 11.56515,-1.38782c0.51401,-1.54202 0.77101,-4.21485 0.77101,-8.0185c0,-4.72886 -0.3598,-7.8386 -1.07941,-9.32922c-0.71961,-1.49062 -2.10743,-2.23593 -4.16345,-2.23593z" data-paper-data="{&quot;elementType&quot;:&quot;letter&quot;,&quot;baseline&quot;:51,&quot;baselineProportion&quot;:0.9807692307692307,&quot;fontSize&quot;:100}"/>
            <path d="M413.14572,262.72167c-5.03727,-5.14007 -7.5559,-10.58854 -7.5559,-16.34541c0,-12.74737 8.48111,-19.12105 25.44333,-19.12105c12.64456,0 18.96685,3.23824 18.96685,9.71473c0,2.98124 -1.07941,5.70547 -3.23824,8.17271c-4.00925,-2.15883 -8.48111,-3.23824 -13.41557,-3.23824c-4.93446,0 -7.4017,1.59342 -7.4017,4.78026c0,2.05603 1.54202,4.62606 4.62606,7.7101l11.41095,11.56515c2.98124,3.49525 5.01157,6.60499 6.09098,9.32922c1.07941,2.72424 1.61912,6.03958 1.61912,9.94603c0,6.88769 -2.31303,12.31046 -6.93909,16.26831c-4.62606,3.95785 -10.89694,5.93678 -18.81264,5.93678c-12.13056,0 -18.19584,-3.03264 -18.19584,-9.09792c0,-2.98124 0.92521,-6.16808 2.77564,-9.56052c4.21485,2.26163 8.73811,3.39244 13.56978,3.39244c5.34567,0 8.0185,-2.21023 8.0185,-6.63069c0,-3.08404 -1.18222,-5.96248 -3.54665,-8.63531z" data-paper-data="{&quot;elementType&quot;:&quot;letter&quot;,&quot;baseline&quot;:51,&quot;baselineProportion&quot;:0.9807692307692307,&quot;fontSize&quot;:100}"/>
          </g>
        </g>
      </g>
    </g>
  </g>
</svg>